<svg width="21" height="21" viewBox="0 0 21 21" fill="none" xmlns="http://www.w3.org/2000/svg">
<path d="M14 14.875V16.625H1.75V14.875C1.75 14.875 1.75 11.375 7.875 11.375C14 11.375 14 14.875 14 14.875ZM10.9375 6.56253C10.9375 5.95683 10.7579 5.36472 10.4214 4.8611C10.0849 4.35747 9.60657 3.96494 9.04697 3.73315C8.48737 3.50136 7.8716 3.44071 7.27754 3.55888C6.68347 3.67704 6.13778 3.96872 5.70949 4.39702C5.28119 4.82532 4.98951 5.371 4.87135 5.96507C4.75318 6.55913 4.81383 7.1749 5.04562 7.7345C5.27741 8.2941 5.66994 8.7724 6.17357 9.10891C6.67719 9.44542 7.26929 9.62503 7.875 9.62503C8.68723 9.62503 9.46618 9.30238 10.0405 8.72805C10.6148 8.15372 10.9375 7.37476 10.9375 6.56253ZM13.9475 11.375C14.4854 11.7913 14.9256 12.3204 15.237 12.9251C15.5484 13.5298 15.7235 14.1954 15.75 14.875V16.625H19.25V14.875C19.25 14.875 19.25 11.6988 13.9475 11.375ZM13.125 3.50003C12.5228 3.49723 11.9339 3.67725 11.4362 4.01628C11.9678 4.75893 12.2535 5.64928 12.2535 6.56253C12.2535 7.47578 11.9678 8.36614 11.4362 9.10878C11.9339 9.44782 12.5228 9.62783 13.125 9.62503C13.9372 9.62503 14.7162 9.30238 15.2905 8.72805C15.8648 8.15372 16.1875 7.37476 16.1875 6.56253C16.1875 5.75031 15.8648 4.97135 15.2905 4.39702C14.7162 3.82269 13.9372 3.50003 13.125 3.50003Z" fill="#3ACE5F"/>
</svg>
