<svg width="28" height="28" viewBox="0 0 28 28" fill="none" xmlns="http://www.w3.org/2000/svg">
<path d="M14.5869 8.17832L14.5099 8.13165C13.6372 7.60082 12.8695 7.13299 12.2115 6.89732C11.8488 6.75791 11.461 6.69553 11.0729 6.71415C10.6643 6.74534 10.2737 6.8954 9.94937 7.14582C9.27387 7.65215 8.98221 8.39765 8.82237 9.22249C8.66721 10.0217 8.60771 11.0623 8.53421 12.3293L8.53071 12.3947C8.48637 13.153 8.45837 13.9032 8.45837 14.5833C8.45837 15.2635 8.48637 16.0148 8.53071 16.7732L8.53421 16.8373C8.60771 18.1043 8.66721 19.145 8.82237 19.943C8.98221 20.769 9.27387 21.5133 9.94937 22.0208C10.283 22.2717 10.6575 22.421 11.0729 22.4525C11.4719 22.4817 11.8545 22.3977 12.2115 22.2693C12.8695 22.0337 13.6372 21.5658 14.5099 21.0362L14.5869 20.9895C15.0839 20.6862 15.5715 20.3747 16.0067 20.0678C16.5396 19.6887 17.0591 19.291 17.5642 18.8755L17.6225 18.8277C18.5139 18.1008 19.2699 17.4837 19.7925 16.877C20.3619 16.212 20.7084 15.498 20.7084 14.5833C20.7084 13.6687 20.3619 12.9535 19.7914 12.2897C19.2699 11.683 18.5139 11.0647 17.6237 10.339L17.5654 10.2912C17.0357 9.85949 16.5037 9.44649 16.0067 9.09882C15.5432 8.77674 15.0697 8.46937 14.5869 8.17715" fill="white"/>
</svg>
