<svg width="24" height="24" viewBox="0 0 24 24" fill="none" xmlns="http://www.w3.org/2000/svg">
<path fill-rule="evenodd" clip-rule="evenodd" d="M10.75 5.5C7.85051 5.5 5.5 7.85051 5.5 10.75C5.5 13.6495 7.85051 16 10.75 16C13.6495 16 16 13.6495 16 10.75C16 7.85051 13.6495 5.5 10.75 5.5ZM3.5 10.75C3.5 6.74594 6.74594 3.5 10.75 3.5C14.7541 3.5 18 6.74594 18 10.75C18 12.3575 17.4764 13.8428 16.5907 15.0444L20.2071 18.6607L18.7929 20.0749L15.1768 16.4588C13.9531 17.4289 12.4152 18 10.75 18C6.74594 18 3.5 14.7541 3.5 10.75Z" fill="#A6A5A7"/>
</svg>
