<svg width="21" height="21" viewBox="0 0 21 21" fill="none" xmlns="http://www.w3.org/2000/svg">
<path d="M8.75 2.625C8.50208 2.625 8.29442 2.541 8.127 2.373C7.95958 2.205 7.87558 1.99733 7.875 1.75C7.87442 1.50267 7.95842 1.295 8.127 1.127C8.29558 0.959 8.50325 0.875 8.75 0.875H12.25C12.4979 0.875 12.7059 0.959 12.8739 1.127C13.0419 1.295 13.1256 1.50267 13.125 1.75C13.1244 1.99733 13.0404 2.20529 12.873 2.37388C12.7056 2.54246 12.4979 2.62617 12.25 2.625H8.75ZM11.1239 11.9989C11.2913 11.8309 11.375 11.6229 11.375 11.375V7.875C11.375 7.62708 11.291 7.41942 11.123 7.252C10.955 7.08458 10.7473 7.00058 10.5 7C10.2527 6.99942 10.045 7.08342 9.877 7.252C9.709 7.42058 9.625 7.62825 9.625 7.875V11.375C9.625 11.6229 9.709 11.8309 9.877 11.9989C10.045 12.1669 10.2527 12.2506 10.5 12.25C10.7473 12.2494 10.9553 12.1654 11.1239 11.998M7.44888 18.627C6.49338 18.2111 5.65833 17.6458 4.94375 16.9313C4.22917 16.2167 3.66421 15.3816 3.24888 14.4261C2.83354 13.4706 2.62558 12.4536 2.625 11.375C2.62442 10.2964 2.83238 9.27908 3.24888 8.323C3.66538 7.36692 4.23033 6.53217 4.94375 5.81875C5.65717 5.10533 6.49221 4.54037 7.44888 4.12388C8.40554 3.70738 9.42258 3.49942 10.5 3.5C11.4042 3.5 12.2719 3.64583 13.1031 3.9375C13.9344 4.22917 14.7146 4.65208 15.4438 5.20625L16.0563 4.59375C16.2167 4.43333 16.4208 4.35313 16.6688 4.35313C16.9167 4.35313 17.1208 4.43333 17.2813 4.59375C17.4417 4.75417 17.5219 4.95833 17.5219 5.20625C17.5219 5.45417 17.4417 5.65833 17.2813 5.81875L16.6688 6.43125C17.2229 7.16042 17.6458 7.94063 17.9375 8.77188C18.2292 9.60313 18.375 10.4708 18.375 11.375C18.375 12.4542 18.167 13.4715 17.7511 14.427C17.3352 15.3825 16.7703 16.2173 16.0563 16.9313C15.3423 17.6453 14.5072 18.2105 13.5511 18.627C12.595 19.0435 11.578 19.2512 10.5 19.25C9.422 19.2488 8.40554 19.0412 7.44888 18.627ZM14.8313 15.7063C16.0271 14.5104 16.625 13.0667 16.625 11.375C16.625 9.68333 16.0271 8.23958 14.8313 7.04375C13.6354 5.84792 12.1917 5.25 10.5 5.25C8.80833 5.25 7.36458 5.84792 6.16875 7.04375C4.97292 8.23958 4.375 9.68333 4.375 11.375C4.375 13.0667 4.97292 14.5104 6.16875 15.7063C7.36458 16.9021 8.80833 17.5 10.5 17.5C12.1917 17.5 13.6354 16.9021 14.8313 15.7063Z" fill="#A6A5A7"/>
</svg>
