<svg width="21" height="21" viewBox="0 0 21 21" fill="none" xmlns="http://www.w3.org/2000/svg">
<path d="M17.7144 12.9064C18.5325 13.4437 18.4949 14.6888 17.6015 15.1604L11.3182 18.4819C11.0661 18.6153 10.7852 18.685 10.5 18.685C10.2149 18.685 9.93401 18.6153 9.68191 18.4819L3.39854 15.1604C2.50604 14.6879 2.46754 13.4437 3.28566 12.9064L3.34079 12.9414L9.68191 16.2944C9.93401 16.4278 10.2149 16.4975 10.5 16.4975C10.7852 16.4975 11.0661 16.4278 11.3182 16.2944L17.6015 12.9729C17.6403 12.9522 17.6773 12.93 17.7144 12.9064ZM17.7144 9.40644C17.8951 9.52613 18.0433 9.6887 18.1459 9.87963C18.2484 10.0706 18.3021 10.2839 18.3021 10.5006C18.3021 10.7174 18.2484 10.9307 18.1459 11.1216C18.0433 11.3126 17.8951 11.4751 17.7144 11.5948L17.6015 11.6604L11.3182 14.9819C11.0896 15.1028 10.8372 15.1715 10.5789 15.1832C10.3207 15.1948 10.063 15.1491 9.82454 15.0493L9.68279 14.9819L3.39854 11.6604C2.50604 11.1879 2.46754 9.94369 3.28566 9.40644L3.34079 9.44144L9.68191 12.7944C9.91056 12.9154 10.1632 12.9842 10.4216 12.9959C10.68 13.0075 10.9378 12.9617 11.1764 12.8618L11.3182 12.7944L17.6015 9.47294C17.6403 9.45221 17.6773 9.43003 17.7144 9.40644ZM11.3182 2.51844L17.6015 5.83994C18.5343 6.33257 18.5343 7.66869 17.6015 8.16044L11.3182 11.4828C11.0661 11.6161 10.7852 11.6858 10.5 11.6858C10.2149 11.6858 9.93401 11.6161 9.68191 11.4828L3.39854 8.16044C2.46579 7.66782 2.46579 6.33257 3.39854 5.83994L9.68191 2.51844C9.93401 2.38512 10.2149 2.31543 10.5 2.31543C10.7852 2.31543 11.0661 2.38512 11.3182 2.51844Z" fill="#9154D1"/>
</svg>
